<svg width="49" height="42" viewBox="0 0 49 42" fill="none" xmlns="http://www.w3.org/2000/svg">
<path fill-rule="evenodd" clip-rule="evenodd" d="M8.67708 14C8.67708 9.1675 13.2475 5.25 18.8854 5.25H34.7083C40.3462 5.25 44.9167 9.16751 44.9167 14V28C44.9167 32.8325 40.3462 36.75 34.7083 36.75H6.125C5.37469 36.75 4.68484 36.3973 4.32841 35.8313C3.97198 35.2654 4.00641 34.5775 4.41807 34.0399L7.67287 29.7887C8.32803 28.933 8.67708 27.9318 8.67708 26.9082V14ZM18.8854 8.75C15.5027 8.75 12.7604 11.1005 12.7604 14V26.9082C12.7604 28.6141 12.1787 30.2828 11.0867 31.709L9.90689 33.25H34.7083C38.0911 33.25 40.8333 30.8995 40.8333 28V14C40.8333 11.1005 38.0911 8.75 34.7083 8.75H18.8854ZM26.5417 14.875C27.6692 14.875 28.5833 15.6585 28.5833 16.625V19.25H31.6458C32.7734 19.25 33.6875 20.0335 33.6875 21C33.6875 21.9665 32.7734 22.75 31.6458 22.75H28.5833V25.375C28.5833 26.3415 27.6692 27.125 26.5417 27.125C25.4141 27.125 24.5 26.3415 24.5 25.375V22.75H21.4375C20.3099 22.75 19.3958 21.9665 19.3958 21C19.3958 20.0335 20.3099 19.25 21.4375 19.25H24.5V16.625C24.5 15.6585 25.4141 14.875 26.5417 14.875Z" fill="white"/>
</svg>
