<svg width="20" height="22" viewBox="0 0 20 22" fill="none" xmlns="http://www.w3.org/2000/svg">
<path fill-rule="evenodd" clip-rule="evenodd" d="M17.8888 4.10639C18.3501 2.94255 17.2538 1.76912 16.1665 2.26288L2.80071 8.33209C1.68475 8.83883 1.75092 10.5551 2.90208 10.9617L7.58133 12.6145C7.88224 12.7208 8.11828 12.9734 8.21758 13.2955L9.76173 18.3039C10.1416 19.536 11.7451 19.6069 12.2185 18.4124L17.8888 4.10639ZM15.3854 0.292196C18.1282 -0.953292 20.8936 2.00664 19.73 4.94244L14.0597 19.2484C12.8654 22.2614 8.82073 22.0828 7.86247 18.9747L6.47619 14.4784L2.27533 12.9946C-0.628471 11.9689 -0.795371 7.63965 2.01961 6.36141L15.3854 0.292196Z" fill="white"/>
</svg>
